<?xml version="1.0" standalone="no"?><!DOCTYPE svg PUBLIC "-//W3C//DTD SVG 1.1//EN" "http://www.w3.org/Graphics/SVG/1.1/DTD/svg11.dtd"><svg t="1540951029776" class="icon" style="" viewBox="0 0 1024 1024" version="1.1" xmlns="http://www.w3.org/2000/svg" p-id="989" xmlns:xlink="http://www.w3.org/1999/xlink" width="200" height="200"><defs><style type="text/css"></style></defs><path d="M167.828945 614.893382V409.106618C164.673164 409.413818 161.489455 409.6 158.254545 409.6c-9.597673 0-18.846255-1.419636-27.661963-3.900509v210.762473c0 0.619055 0.288582 1.140364 0.353745 1.745454A101.794909 101.794909 0 0 1 158.254545 614.4c3.234909 0 6.418618 0.190836 9.5744 0.493382zM772.780218 759.463564a37134.443055 37134.443055 0 0 1-84.954763 48.756363c-31.543855 18.078255-63.725382 36.524218-93.016437 53.387637a102.106764 102.106764 0 0 1 16.058182 33.736145c29.914764-17.2544 63.031855-36.226327 95.469382-54.816582 31.557818-18.0736 62.007855-35.528145 87.980218-50.492509a102.786327 102.786327 0 0 1-21.536582-30.571054zM856.1664 409.106618v205.786764A101.12 101.12 0 0 1 865.745455 614.4c9.495273 0 18.6368 1.396364 27.364072 3.826036 0.037236-0.498036 0.293236-0.926255 0.293237-1.4336V405.699491A101.780945 101.780945 0 0 1 865.745455 409.6c-3.234909 0-6.423273-0.190836-9.579055-0.493382zM251.471127 265.0624L429.581964 162.909091a101.892655 101.892655 0 0 1-16.272291-33.601164L230.130036 234.374982a102.674618 102.674618 0 0 1 21.341091 30.687418zM346.144582 815.080727c-32.065164-18.646109-64.781964-37.659927-95.115637-55.207563a102.735127 102.735127 0 0 1-21.690181 30.473309c31.152873 18.008436 64.977455 37.669236 98.089891 56.925091a43441.012364 43441.012364 0 0 0 85.336436 49.538327 101.878691 101.878691 0 0 1 15.546182-34.024727c-25.181091-14.568727-53.248-30.896873-82.166691-47.704437zM682.1376 212.135564a15230.091636 15230.091636 0 0 0 90.3168 53.061818 102.953891 102.953891 0 0 1 21.280582-30.706037c-29.6448-17.198545-61.472582-35.979636-92.662691-54.411636-31.906909-18.860218-62.8736-37.133964-89.865309-52.759273a102.0928 102.0928 0 0 1-15.597382 34.006109c26.200436 15.192436 55.891782 32.712145 86.528 50.809019z" fill="#9AB040" p-id="990"></path><path d="M512 204.8c34.527418 0 65.047273-17.221818 83.6096-43.473455a102.0928 102.0928 0 0 0 15.597382-34.006109c2.010764-7.991855 3.193018-16.309527 3.193018-24.920436 0-56.459636-45.940364-102.4-102.4-102.4S409.6 45.940364 409.6 102.4c0 9.327709 1.363782 18.320291 3.709673 26.907927A101.892655 101.892655 0 0 0 429.581964 162.909091C448.232727 188.253091 478.180073 204.8 512 204.8z" fill="#618287" p-id="991"></path><path d="M512 372.363636c-77.000145 0-139.636364 62.636218-139.636364 139.636364s62.636218 139.636364 139.636364 139.636364 139.636364-62.636218 139.636364-139.636364-62.636218-139.636364-139.636364-139.636364z" fill="#F8A131" p-id="992"></path><path d="M512 819.2c-34.573964 0-65.135709 17.268364-83.688727 43.580509a101.878691 101.878691 0 0 0-15.546182 34.029382A101.850764 101.850764 0 0 0 409.6 921.6c0 56.459636 45.940364 102.4 102.4 102.4s102.4-45.940364 102.4-102.4a102.120727 102.120727 0 0 0-3.537455-26.251636 102.106764 102.106764 0 0 0-16.053527-33.7408C576.186182 835.961018 546.043345 819.2 512 819.2zM893.109527 618.226036A101.822836 101.822836 0 0 0 865.745455 614.4c-3.234909 0-6.423273 0.190836-9.579055 0.493382C804.184436 619.734109 763.345455 663.570618 763.345455 716.8c0 15.238982 3.435055 29.654109 9.434763 42.663564a102.786327 102.786327 0 0 0 21.536582 30.571054c18.464582 18.013091 43.659636 29.165382 71.428655 29.165382 56.459636 0 102.4-45.940364 102.4-102.4 0-46.973673-31.837091-86.565236-75.035928-98.573964zM772.4544 265.197382A101.692509 101.692509 0 0 0 763.345455 307.2c0 53.229382 40.838982 97.065891 92.820945 101.906618 3.151127 0.302545 6.344145 0.493382 9.579055 0.493382 9.588364 0 18.846255-1.419636 27.657309-3.900509C936.457309 393.597673 968.145455 354.071273 968.145455 307.2c0-56.459636-45.940364-102.4-102.4-102.4-28.052945 0-53.499345 11.357091-72.005819 29.691345a102.953891 102.953891 0 0 0-21.285236 30.706037zM251.028945 759.873164A101.5808 101.5808 0 0 0 260.654545 716.8c0-53.238691-40.838982-97.0752-92.8256-101.906618A100.994327 100.994327 0 0 0 158.254545 614.4a101.794909 101.794909 0 0 0-27.308218 3.807418C87.719564 630.197527 55.854545 669.7984 55.854545 716.8c0 56.459636 45.940364 102.4 102.4 102.4 27.610764 0 52.652218-11.031273 71.084219-28.858182a102.735127 102.735127 0 0 0 21.690181-30.468654zM167.828945 409.106618C219.820218 404.2752 260.654545 360.438691 260.654545 307.2c0-15.024873-3.337309-29.277091-9.183418-42.1376a102.674618 102.674618 0 0 0-21.341091-30.687418C211.628218 216.110545 186.246982 204.8 158.254545 204.8 101.794909 204.8 55.854545 250.740364 55.854545 307.2c0 46.871273 31.688145 86.379055 74.738037 98.499491 8.815709 2.480873 18.059636 3.900509 27.661963 3.900509 3.234909 0 6.418618-0.190836 9.5744-0.493382z" fill="#618287" p-id="993"></path></svg>